if (_typeface_js && _typeface_js.loadFace) _typeface_js.loadFace({"glyphs":{"S":{"x_min":35.109375,"x_max":654.609375,"ha":681,"o":"m 654 911 q 558 953 614 935 q 433 972 503 972 q 317 951 369 972 q 226 896 264 931 q 169 814 189 862 q 149 712 149 767 q 160 634 149 669 q 197 571 172 600 q 262 511 222 541 q 360 448 303 481 q 432 399 403 421 q 478 355 461 377 q 503 308 496 332 q 510 253 510 284 q 494 178 510 212 q 451 119 478 143 q 385 82 423 95 q 304 69 347 69 q 172 93 236 69 q 57 156 108 118 l 35 64 q 149 11 79 34 q 299 -12 219 -12 q 417 6 361 -12 q 515 61 474 25 q 581 149 557 97 q 606 265 606 200 q 595 342 606 307 q 560 409 585 377 q 497 472 536 441 q 400 538 458 503 q 278 629 314 589 q 242 722 242 670 q 253 786 242 756 q 288 840 265 817 q 346 877 311 863 q 425 891 380 891 q 536 870 485 891 q 632 820 587 850 l 654 911 "},"/":{"x_min":-127.78125,"x_max":780.5625,"ha":711,"o":"m 780 950 l 697 968 l -127 -154 l -45 -172 l 780 950 "},"K":{"x_min":68.0625,"x_max":836.109375,"ha":790,"o":"m 836 959 l 718 959 l 244 522 l 313 959 l 220 959 l 68 0 l 162 0 l 240 494 l 616 -9 l 713 12 l 340 508 l 836 959 "},"7":{"x_min":119.265625,"x_max":729,"ha":703,"o":"m 729 939 l 154 939 l 154 860 l 616 860 l 119 11 l 201 -9 l 717 873 l 729 939 "},"d":{"x_min":54,"x_max":678.5625,"ha":677,"o":"m 678 997 l 586 980 l 535 644 q 479 660 509 653 q 413 667 449 667 q 273 635 339 667 q 159 545 208 603 q 82 407 110 487 q 54 229 54 326 q 105 48 54 111 q 242 -14 156 -14 q 357 22 305 -14 q 466 121 409 58 l 466 0 l 548 0 l 548 184 l 678 997 m 522 565 l 464 205 q 351 99 399 134 q 257 64 303 64 q 173 109 203 64 q 144 237 144 155 q 165 386 144 321 q 223 497 187 451 q 306 567 259 543 q 405 591 353 591 q 465 584 438 591 q 522 565 492 578 "},",":{"x_min":-33.328125,"x_max":197.21875,"ha":297,"o":"m 197 136 l 86 136 l -33 -172 l 13 -184 l 197 136 "},"Y":{"x_min":140.28125,"x_max":880.5625,"ha":818,"o":"m 880 959 l 775 959 l 433 482 l 236 968 l 140 949 l 373 397 l 311 0 l 404 0 l 466 398 l 880 959 "},"E":{"x_min":67.78125,"x_max":688.609375,"ha":656,"o":"m 688 959 l 220 959 l 67 0 l 549 0 l 562 82 l 174 82 l 234 460 l 540 460 l 540 543 l 248 543 l 301 877 l 674 877 l 688 959 "},"y":{"x_min":8,"x_max":634.390625,"ha":621,"o":"m 634 657 l 541 657 l 281 111 l 177 665 l 88 648 l 221 4 l 176 -81 q 123 -150 151 -128 q 58 -172 95 -172 q 30 -170 42 -172 q 8 -166 19 -169 l 8 -245 q 26 -248 16 -247 q 46 -250 37 -250 q 110 -242 81 -250 q 164 -215 139 -234 q 212 -166 189 -197 q 258 -91 235 -136 l 634 657 "},"\"":{"x_min":185,"x_max":534.65625,"ha":531,"o":"m 534 939 l 418 939 l 418 694 l 463 682 l 534 939 m 301 939 l 185 939 l 185 694 l 230 682 l 301 939 "},"‹":{"x_min":54.171875,"x_max":412.5,"ha":433,"o":"m 412 657 l 330 657 l 54 329 l 230 -7 l 302 9 l 158 322 l 412 657 "},"„":{"x_min":-15.28125,"x_max":419.4375,"ha":526,"o":"m 190 136 l 79 136 l -15 -161 l 33 -172 l 190 136 m 419 136 l 308 136 l 213 -161 l 262 -172 l 419 136 "},"g":{"x_min":15.71875,"x_max":619.609375,"ha":678,"o":"m 619 620 q 520 653 572 639 q 416 667 468 667 q 276 635 341 667 q 161 545 210 603 q 84 407 112 487 q 56 230 56 326 q 107 61 56 122 q 244 0 158 0 q 355 33 307 0 q 452 119 404 66 l 436 16 q 374 -123 421 -74 q 241 -172 328 -172 q 139 -158 191 -172 q 37 -120 87 -144 l 15 -199 q 119 -235 62 -220 q 235 -250 176 -250 q 431 -182 358 -250 q 526 25 504 -115 l 619 620 m 523 565 l 468 219 q 357 113 405 148 q 261 78 308 78 q 176 119 207 78 q 146 240 146 161 q 167 386 146 321 q 224 497 189 451 q 307 566 259 542 q 405 591 354 591 q 466 584 439 591 q 523 565 493 578 "},"–":{"x_min":84.71875,"x_max":568.0625,"ha":633,"o":"m 554 349 l 568 438 l 98 438 l 84 349 l 554 349 "},"ƒ":{"x_min":92.84375,"x_max":482,"ha":500,"o":"m 482 865 l 482 946 q 425 951 462 951 q 290 909 340 951 q 226 773 240 867 l 202 629 l 105 629 l 92 553 l 190 553 l 101 0 l 191 0 l 278 553 l 422 553 l 422 629 l 291 629 l 313 765 q 350 846 323 822 q 422 870 377 870 q 482 865 454 870 "},"e":{"x_min":56,"x_max":568.890625,"ha":622,"o":"m 161 394 q 240 545 186 490 q 353 600 294 600 q 451 545 423 600 q 480 394 480 490 l 161 394 m 148 326 l 559 326 q 566 376 563 349 q 568 426 568 402 q 514 607 568 544 q 360 671 460 671 q 248 641 303 671 q 150 558 193 612 q 81 428 107 504 q 56 259 56 352 q 121 57 56 129 q 298 -14 186 -14 q 414 5 361 -14 q 519 60 466 24 l 519 145 q 413 82 461 103 q 311 62 365 62 q 189 115 232 62 q 146 264 146 168 q 146 295 146 280 q 148 326 146 310 "},"J":{"x_min":-3,"x_max":470.609375,"ha":488,"o":"m 470 959 l 377 959 l 266 248 q 208 113 251 152 q 95 75 165 75 q 44 79 67 75 q -3 90 20 83 l -3 3 q 40 -3 16 0 q 97 -8 65 -8 q 270 51 203 -8 q 358 244 337 111 l 470 959 "},"|":{"x_min":143,"x_max":226,"ha":369,"o":"m 226 -248 l 226 1004 l 143 990 l 143 -262 l 226 -248 "},"^":{"x_min":197.21875,"x_max":566.671875,"ha":633,"o":"m 566 769 l 459 965 l 375 965 l 197 764 l 258 764 l 405 877 l 519 759 l 566 769 "},"q":{"x_min":54,"x_max":619,"ha":677,"o":"m 619 620 q 519 653 571 639 q 416 667 467 667 q 275 635 341 667 q 160 545 209 603 q 82 407 110 487 q 54 229 54 326 q 105 48 54 111 q 242 -14 156 -14 q 352 19 303 -14 q 449 105 400 52 l 392 -254 l 482 -239 l 619 620 m 523 565 l 464 205 q 351 99 399 134 q 257 64 303 64 q 173 109 203 64 q 144 237 144 155 q 165 386 144 321 q 223 497 187 451 q 306 567 259 543 q 405 591 353 591 q 465 584 438 591 q 523 565 492 578 "},"b":{"x_min":58,"x_max":623,"ha":677,"o":"m 58 37 q 157 5 106 18 q 260 -8 209 -8 q 401 23 335 -8 q 516 112 467 55 q 594 250 566 169 q 623 429 623 330 q 571 609 623 547 q 434 671 520 671 q 324 637 373 671 q 227 552 276 604 l 298 997 l 208 980 l 58 37 m 155 91 l 212 451 q 325 557 277 522 q 419 593 373 593 q 503 547 473 593 q 533 419 533 501 q 511 271 533 336 q 454 159 489 205 q 371 90 419 114 q 273 67 324 67 q 211 73 239 67 q 155 91 183 79 "},"D":{"x_min":67.890625,"x_max":853,"ha":895,"o":"m 853 564 q 748 853 853 747 q 447 959 644 959 l 220 959 l 67 0 l 309 0 q 524 38 427 0 q 693 150 620 77 q 811 330 769 225 q 853 564 853 435 m 754 558 q 719 354 754 446 q 620 200 684 262 q 486 112 562 143 q 317 82 410 82 l 174 82 l 301 877 l 435 877 q 674 793 595 877 q 754 558 754 710 "},"z":{"x_min":1.78125,"x_max":575.671875,"ha":594,"o":"m 575 657 l 124 657 l 124 583 l 457 583 l 12 69 l 1 0 l 484 0 l 484 73 l 119 73 l 563 588 l 575 657 "},"w":{"x_min":94.4375,"x_max":968.0625,"ha":958,"o":"m 968 657 l 879 657 l 638 129 l 569 660 l 493 660 l 256 129 l 180 668 l 94 651 l 202 -4 l 272 -4 l 509 526 l 581 -4 l 651 -4 l 968 657 "},"$":{"x_min":19.609375,"x_max":693.125,"ha":707,"o":"m 560 932 l 592 1032 l 524 1049 l 491 943 q 461 945 476 945 q 431 945 447 945 q 313 927 366 945 q 223 876 261 909 q 166 799 186 843 q 146 701 146 755 q 197 562 146 615 q 341 461 248 508 l 221 78 q 125 111 171 90 q 39 157 79 132 l 19 71 q 98 33 52 51 q 196 4 143 15 l 146 -155 l 212 -170 q 221 -144 212 -170 q 239 -87 229 -119 q 256 -30 248 -56 q 264 -5 264 -5 q 290 -8 277 -8 q 316 -8 302 -8 q 441 10 383 -8 q 541 64 498 29 q 607 149 583 99 q 632 264 632 200 q 584 401 632 344 q 427 515 537 458 l 535 859 q 609 834 574 847 q 672 802 644 820 l 693 886 q 632 912 665 900 q 560 932 599 924 m 287 67 q 299 105 289 69 q 327 195 309 140 q 361 303 344 250 q 389 393 377 356 q 401 431 401 431 q 514 349 481 388 q 547 257 547 310 q 530 177 547 212 q 483 117 513 142 q 412 78 454 92 q 322 65 370 65 q 304 65 312 65 q 287 67 295 65 m 470 871 l 368 545 q 259 621 290 585 q 228 706 228 658 q 280 827 228 781 q 427 873 332 873 q 449 873 438 873 q 470 871 459 873 "},"™":{"x_min":117.734375,"x_max":1068,"ha":1112,"o":"m 1068 479 l 1068 958 l 973 958 l 820 565 l 667 958 l 572 958 l 572 479 l 630 479 l 630 846 l 792 478 l 845 478 l 1008 846 l 1008 479 l 1068 479 m 485 898 l 475 958 l 117 958 l 117 898 l 269 898 l 269 479 l 334 479 l 334 898 l 485 898 "},"\\":{"x_min":25,"x_max":763.890625,"ha":711,"o":"m 763 -155 l 108 966 l 25 950 l 681 -173 l 763 -155 "},"’":{"x_min":122.21875,"x_max":327.78125,"ha":297,"o":"m 327 959 l 216 959 l 122 661 l 170 649 l 327 959 "},"~":{"x_min":72.21875,"x_max":506.9375,"ha":560,"o":"m 506 456 l 445 470 q 415 413 430 430 q 384 396 400 396 q 352 403 368 396 q 301 432 337 411 q 252 459 273 450 q 204 468 231 468 q 72 323 119 468 l 133 311 q 163 368 148 351 q 194 385 179 385 q 210 383 202 385 q 227 378 218 382 q 247 366 236 373 q 277 348 259 359 q 327 322 306 330 q 375 314 347 314 q 506 456 461 314 "},"-":{"x_min":84.71875,"x_max":433.328125,"ha":500,"o":"m 433 439 l 95 439 l 84 347 l 420 347 l 433 439 "},"Q":{"x_min":86,"x_max":916,"ha":958,"o":"m 792 -110 l 542 0 q 693 70 624 19 q 811 194 761 121 q 888 363 860 268 q 916 564 916 457 q 891 727 916 651 q 821 858 867 803 q 707 945 775 913 q 552 977 639 977 q 369 931 455 977 q 221 808 284 886 q 122 624 158 729 q 86 397 86 518 q 101 257 86 319 q 149 146 117 194 q 231 59 181 97 q 348 -9 281 21 l 767 -200 l 792 -110 m 819 558 q 790 363 819 454 q 712 206 762 272 q 596 101 663 139 q 452 63 528 63 q 340 87 389 63 q 255 156 291 111 q 201 262 220 200 q 183 400 183 324 q 211 594 183 504 q 289 751 239 685 q 405 856 338 818 q 548 895 471 895 q 660 870 610 895 q 746 802 710 846 q 800 697 781 758 q 819 558 819 635 "},"M":{"x_min":48.109375,"x_max":1081,"ha":1195,"o":"m 1081 959 l 1003 959 l 566 132 l 389 959 l 275 959 l 48 0 l 134 0 l 325 818 l 510 -6 l 575 -6 l 987 818 l 987 0 l 1081 0 l 1081 959 "},"C":{"x_min":86,"x_max":808.5,"ha":806,"o":"m 808 890 q 702 952 764 929 q 558 975 641 975 q 368 927 455 975 q 219 797 281 879 q 121 610 156 716 q 86 390 86 505 q 112 217 86 292 q 186 89 138 141 q 298 10 233 37 q 441 -17 363 -17 q 576 1 513 -17 q 696 56 639 20 l 696 151 q 447 68 579 68 q 340 89 389 68 q 256 152 291 111 q 201 255 220 194 q 182 395 182 316 q 209 582 182 492 q 285 740 236 672 q 402 849 334 809 q 554 890 470 890 q 679 864 622 890 q 784 792 736 838 l 808 890 "},"[":{"x_min":57.328125,"x_max":568.453125,"ha":538,"o":"m 568 959 l 230 959 l 57 -146 l 399 -146 l 399 -75 l 154 -75 l 305 888 l 557 888 l 568 959 "},"L":{"x_min":68,"x_max":518,"ha":607,"o":"m 518 0 l 518 82 l 173 82 l 313 958 l 220 958 l 68 0 l 518 0 "},"!":{"x_min":76.390625,"x_max":337.5,"ha":364,"o":"m 337 959 l 226 959 l 140 263 l 205 277 l 337 959 m 205 136 l 97 136 l 76 0 l 183 0 l 205 136 "}," ":{"x_min":0,"x_max":0,"ha":300},"{":{"x_min":75,"x_max":655.453125,"ha":635,"o":"m 655 958 l 533 958 q 359 906 415 958 q 304 751 304 854 q 304 722 304 740 q 304 686 304 705 q 304 650 304 667 q 304 623 304 633 q 254 480 304 520 q 123 440 205 440 l 75 440 l 75 372 l 109 372 q 213 346 181 372 q 246 267 246 320 q 236 202 246 238 q 217 129 227 166 q 198 57 206 92 q 190 -7 190 21 q 235 -113 190 -80 q 359 -146 280 -146 l 486 -146 l 486 -77 l 378 -77 q 273 2 273 -77 q 282 63 273 28 q 302 134 291 98 q 322 208 313 171 q 332 274 332 245 q 301 360 332 331 q 212 402 270 390 l 212 405 q 283 427 251 413 q 339 465 315 441 q 376 527 363 490 q 390 619 390 565 q 390 647 390 630 q 390 681 390 663 q 390 718 390 701 q 390 748 390 736 q 422 851 390 813 q 529 889 454 889 l 645 889 l 655 958 "},"X":{"x_min":-6.9375,"x_max":851.390625,"ha":829,"o":"m 851 959 l 744 959 l 451 576 l 270 965 l 176 946 l 391 503 l -6 0 l 100 0 l 429 426 l 631 -8 l 727 12 l 491 501 l 851 959 "},"P":{"x_min":68.125,"x_max":700,"ha":699,"o":"m 700 709 q 622 894 700 831 q 400 958 545 958 l 220 958 l 68 0 l 162 0 l 226 404 l 334 404 q 486 426 419 404 q 601 488 554 448 q 674 585 648 528 q 700 709 700 641 m 607 700 q 591 617 607 656 q 543 549 575 578 q 462 503 511 520 q 350 487 413 487 l 240 487 l 301 876 l 398 876 q 555 830 504 876 q 607 700 607 784 "},"%":{"x_min":107,"x_max":1097,"ha":1158,"o":"m 508 732 q 463 889 508 829 q 331 950 419 950 q 242 924 283 950 q 171 856 201 898 q 124 757 141 814 q 107 640 107 701 q 151 482 107 542 q 281 423 195 423 q 370 448 329 423 q 442 516 412 474 q 490 615 473 558 q 508 732 508 671 m 1011 932 l 937 948 l 192 6 l 266 -9 l 1011 932 m 330 885 q 400 848 372 885 q 429 736 429 811 q 418 642 429 687 q 388 563 408 597 q 342 508 369 529 q 283 488 315 488 q 213 524 240 488 q 186 635 186 560 q 196 728 186 683 q 226 808 206 773 q 272 864 245 843 q 330 885 298 885 m 1097 298 q 1052 457 1097 397 q 922 517 1008 517 q 832 491 873 517 q 761 423 791 465 q 713 324 730 380 q 696 207 696 268 q 739 49 696 109 q 870 -11 783 -11 q 959 14 918 -11 q 1031 82 1001 40 q 1079 181 1062 125 q 1097 298 1097 237 m 1018 304 q 1007 210 1018 255 q 977 130 997 165 q 931 74 958 95 q 872 54 904 54 q 802 90 830 54 q 775 202 775 127 q 785 296 775 251 q 815 376 795 342 q 861 431 834 410 q 920 452 888 452 q 990 415 963 452 q 1018 304 1018 379 "},"#":{"x_min":65,"x_max":857,"ha":888,"o":"m 857 612 l 857 691 l 705 691 l 754 934 l 684 949 l 633 691 l 376 691 l 426 942 l 349 942 l 301 691 l 106 691 l 120 612 l 285 612 l 228 328 l 65 328 l 65 249 l 215 249 l 166 5 l 237 -9 l 288 249 l 547 249 l 497 -2 l 570 -2 l 619 249 l 813 249 l 800 328 l 634 328 l 691 612 l 857 612 m 618 612 l 561 328 l 303 328 l 360 612 l 618 612 "},"_":{"x_min":-77.78125,"x_max":579.171875,"ha":640,"o":"m 579 -72 l -65 -72 l -77 -146 l 568 -146 l 579 -72 "},"+":{"x_min":97.21875,"x_max":740.28125,"ha":792,"o":"m 729 432 l 740 507 l 465 507 l 508 787 l 429 787 l 384 507 l 108 507 l 97 432 l 373 432 l 329 151 l 409 151 l 452 432 l 729 432 "},"":{"x_min":69,"x_max":894,"ha":963,"o":"m 894 -278 l 894 1002 l 754 1002 l 713 1111 l 249 1111 l 208 1002 l 69 1002 l 69 232 q 101 218 88 232 q 113 187 113 205 q 101 155 113 168 q 69 143 88 143 l 69 -278 l 356 -278 l 367 -259 l 593 -259 l 604 -278 l 894 -278 m 555 782 l 635 782 l 635 763 l 576 763 l 576 671 l 628 671 l 628 651 l 576 651 l 576 542 l 555 542 l 555 782 m 255 782 l 276 782 l 276 672 l 341 672 l 341 782 l 362 782 l 362 543 l 341 543 l 341 653 l 276 653 l 276 543 l 255 543 l 255 782 m 638 547 l 638 569 q 652 563 644 566 q 666 561 660 561 q 689 591 689 561 l 689 782 l 711 782 l 711 591 q 667 542 711 542 q 651 543 660 542 q 638 547 642 544 m 726 449 l 737 449 l 737 415 l 766 449 l 780 449 l 755 420 l 781 385 l 769 385 l 747 412 l 737 403 l 737 385 l 726 385 l 726 449 m 677 406 l 660 406 l 660 385 l 650 385 l 650 449 l 678 449 q 695 442 689 449 q 701 429 701 436 q 687 408 701 412 l 703 385 l 691 385 l 677 406 m 591 383 q 568 392 576 383 q 559 416 559 402 q 568 439 559 429 q 591 450 576 450 q 615 439 606 450 q 625 416 625 429 q 615 392 625 402 q 591 383 606 383 m 513 417 l 531 449 l 544 449 l 519 408 l 519 385 l 508 385 l 508 408 l 482 449 l 495 449 l 513 417 m 268 449 l 313 449 l 313 439 l 279 439 l 279 422 l 309 422 l 309 412 l 279 412 l 279 394 l 313 394 l 313 385 l 268 385 l 268 449 m 183 449 l 193 449 l 227 404 l 227 449 l 239 449 l 239 385 l 229 385 l 194 429 l 194 385 l 183 385 l 183 449 m 334 449 l 345 449 l 359 400 l 360 400 l 375 449 l 386 449 l 400 400 l 402 400 l 416 449 l 427 449 l 407 383 l 396 383 l 381 431 l 380 431 l 366 383 l 355 383 l 334 449 m 453 665 q 474 709 474 687 q 469 728 474 720 q 456 735 464 735 q 442 728 448 735 q 437 709 437 720 q 441 688 437 698 q 453 665 446 679 m 474 587 l 446 641 q 426 595 426 620 q 432 569 426 580 q 449 558 438 558 q 464 567 456 558 q 474 587 471 576 m 677 415 q 690 427 690 415 q 676 439 690 439 l 661 439 l 661 415 l 677 415 m 590 393 q 606 399 600 393 q 613 416 613 406 q 606 432 613 424 q 590 440 600 440 q 575 432 581 440 q 570 416 570 424 q 575 399 570 406 q 590 393 581 393 m 484 608 q 490 628 487 617 q 496 649 494 639 l 515 645 q 507 617 512 630 q 496 591 502 603 l 519 550 l 503 538 l 487 572 l 485 572 q 471 549 480 559 q 448 538 461 538 q 416 553 428 538 q 405 592 405 569 q 437 655 405 630 q 423 682 428 671 q 417 709 417 694 q 427 738 417 725 q 456 752 438 752 q 484 738 475 752 q 494 709 494 725 q 484 678 494 693 q 461 651 475 664 l 484 608 "},"‚":{"x_min":-15.28125,"x_max":190.28125,"ha":297,"o":"m 190 136 l 79 136 l -15 -161 l 33 -172 l 190 136 "},")":{"x_min":28,"x_max":477,"ha":546,"o":"m 477 541 q 461 673 477 612 q 418 790 446 734 q 350 898 390 846 q 260 1004 310 950 l 173 984 q 267 869 228 923 q 331 762 305 815 q 369 652 357 708 q 381 532 381 595 q 296 209 381 354 q 28 -48 211 63 l 28 -140 q 235 8 149 -69 q 374 171 320 86 q 452 350 428 257 q 477 541 477 443 "},"'":{"x_min":185,"x_max":301.671875,"ha":297,"o":"m 301 939 l 185 939 l 185 694 l 230 682 l 301 939 "},"}":{"x_min":3.953125,"x_max":583,"ha":634,"o":"m 583 372 l 583 440 l 548 440 q 445 465 476 440 q 414 544 414 491 q 422 609 414 573 q 441 682 430 645 q 460 754 451 719 q 470 819 470 790 q 424 925 470 892 q 298 958 378 958 l 172 958 l 172 889 l 279 889 q 385 809 385 889 q 375 748 385 783 q 356 676 366 713 q 337 602 345 638 q 329 537 329 566 q 358 451 329 481 q 446 410 387 421 l 446 408 q 374 385 407 399 q 318 346 341 370 q 281 284 294 321 q 268 192 268 246 q 268 163 268 181 q 268 128 268 146 q 268 92 268 110 q 268 63 268 75 q 236 -40 268 -3 q 130 -77 204 -77 l 15 -77 l 3 -146 l 125 -146 q 297 -93 241 -146 q 354 60 354 -41 q 354 88 354 71 q 354 125 354 106 q 354 161 354 144 q 354 189 354 178 q 403 332 354 292 q 536 372 453 372 l 583 372 "},"‰":{"x_min":103,"x_max":1062,"ha":1120,"o":"m 1062 479 q 1027 681 1062 589 q 929 838 992 772 q 779 940 867 903 q 582 977 690 977 q 387 940 475 977 q 235 837 298 903 q 137 680 172 771 q 103 479 103 589 q 137 278 103 369 q 235 120 172 186 q 387 18 298 55 q 582 -18 475 -18 q 779 18 690 -18 q 929 121 867 55 q 1027 278 992 187 q 1062 479 1062 369 m 1013 479 q 981 290 1013 375 q 894 146 950 205 q 758 54 837 87 q 583 22 679 22 q 408 54 487 22 q 272 146 329 87 q 184 290 215 205 q 153 479 153 375 q 184 668 153 583 q 271 812 215 753 q 407 904 328 871 q 582 937 486 937 q 757 904 678 937 q 893 812 836 871 q 981 668 950 753 q 1013 479 1013 583 m 640 449 q 725 502 692 464 q 759 602 759 540 q 708 719 759 677 q 573 762 657 762 l 422 762 l 422 214 l 496 214 l 496 438 l 564 438 l 731 210 l 810 225 l 640 449 m 572 695 q 655 670 626 695 q 684 600 684 645 q 651 526 684 551 q 565 502 619 502 l 496 502 l 496 695 l 572 695 "},"a":{"x_min":54,"x_max":616.609375,"ha":672,"o":"m 462 134 l 462 0 l 543 0 l 543 190 l 616 625 q 522 655 567 644 q 426 667 477 667 q 283 632 351 667 q 165 537 216 598 q 83 391 113 475 q 54 206 54 307 q 99 42 54 99 q 225 -14 145 -14 q 340 27 283 -14 q 462 134 397 68 m 463 226 q 334 103 385 143 q 239 64 284 64 q 169 102 195 64 q 144 215 144 140 q 166 367 144 298 q 227 486 189 436 q 313 563 264 536 q 415 591 362 591 q 472 586 449 591 q 519 571 495 582 l 463 226 "},"T":{"x_min":128.21875,"x_max":806,"ha":751,"o":"m 806 877 l 806 959 l 142 959 l 128 877 l 418 877 l 279 0 l 374 0 l 511 877 l 806 877 "},"—":{"x_min":84.71875,"x_max":1201.390625,"ha":1267,"o":"m 1187 350 l 1201 438 l 98 438 l 84 350 l 1187 350 "},"=":{"x_min":95.828125,"x_max":783.328125,"ha":839,"o":"m 769 581 l 783 664 l 158 664 l 144 581 l 769 581 m 720 275 l 734 358 l 109 358 l 95 275 l 720 275 "},"N":{"x_min":68.0625,"x_max":893.0625,"ha":914,"o":"m 893 959 l 806 959 l 686 190 l 309 959 l 220 959 l 68 0 l 155 0 l 283 814 l 683 0 l 740 0 l 893 959 "},"2":{"x_min":11.390625,"x_max":678,"ha":709,"o":"m 678 733 q 615 895 678 833 q 434 957 553 957 q 294 931 359 957 q 169 865 228 905 l 169 776 q 301 849 237 823 q 426 875 365 875 q 543 834 501 875 q 585 726 585 794 q 548 598 585 658 q 433 464 511 539 l 21 68 l 11 0 l 579 0 l 579 81 l 144 81 l 483 405 q 574 498 537 457 q 634 578 611 540 q 667 654 657 616 q 678 733 678 691 "},"j":{"x_min":-92,"x_max":308,"ha":311,"o":"m 308 881 q 289 928 308 909 q 242 948 270 948 q 195 928 214 948 q 177 881 177 909 q 195 834 177 853 q 242 816 214 816 q 289 834 270 816 q 308 881 308 853 m 252 657 l 163 657 l 45 -88 q -37 -172 31 -172 q -92 -165 -64 -172 l -92 -244 q -65 -247 -82 -245 q -32 -250 -48 -250 q 75 -217 34 -250 q 131 -101 117 -184 l 252 657 "},"Z":{"x_min":24.609375,"x_max":813.890625,"ha":794,"o":"m 813 959 l 201 959 l 201 878 l 686 878 l 34 65 l 24 0 l 675 0 l 675 81 l 153 81 l 804 893 l 813 959 "},"u":{"x_min":65,"x_max":624.78125,"ha":678,"o":"m 624 657 l 535 657 l 471 244 q 339 112 398 158 q 237 67 281 67 q 175 89 195 67 q 155 154 155 112 q 156 175 155 162 q 160 198 157 187 l 232 657 l 143 657 l 69 183 q 65 156 65 172 q 65 129 65 140 q 104 22 65 59 q 217 -14 144 -14 q 339 30 278 -14 q 465 146 401 75 l 465 0 l 547 0 l 547 185 l 624 657 "},"1":{"x_min":117,"x_max":428.109375,"ha":469,"o":"m 428 943 l 357 943 l 117 840 l 117 766 l 325 844 l 190 0 l 279 0 l 428 943 "},"›":{"x_min":19.4375,"x_max":377.78125,"ha":433,"o":"m 19 0 l 102 0 l 377 327 l 204 664 l 129 648 l 275 334 l 19 0 "},"k":{"x_min":52.78125,"x_max":618.0625,"ha":607,"o":"m 618 657 l 500 657 l 201 375 l 298 997 l 208 980 l 52 0 l 141 0 l 197 348 l 443 -9 l 538 8 l 291 359 l 618 657 "},"<":{"x_min":97.21875,"x_max":766.671875,"ha":792,"o":"m 655 123 l 669 209 l 197 466 l 751 722 l 766 815 l 108 505 l 97 433 l 655 123 "},"t":{"x_min":71.828125,"x_max":423,"ha":437,"o":"m 423 582 l 423 657 l 272 657 l 309 900 l 218 884 l 183 657 l 84 657 l 71 582 l 170 582 l 107 185 q 103 150 105 173 q 101 115 101 127 q 140 18 101 47 q 247 -11 180 -11 q 298 -8 274 -11 q 337 -1 322 -5 l 337 73 q 306 67 323 70 q 270 65 290 65 q 193 133 193 65 q 195 162 193 141 q 198 191 197 184 l 259 582 l 423 582 "},"W":{"x_min":159.71875,"x_max":1406.953125,"ha":1365,"o":"m 1406 959 l 1306 959 l 956 157 l 829 959 l 736 959 l 354 157 l 256 968 l 159 947 l 287 0 l 362 0 l 759 820 l 897 0 l 972 0 l 1406 959 "},"v":{"x_min":88.890625,"x_max":620.828125,"ha":608,"o":"m 620 657 l 527 657 l 269 113 l 177 665 l 88 648 l 212 -6 l 288 -6 l 620 657 "},">":{"x_min":70.828125,"x_max":740.28125,"ha":792,"o":"m 181 815 l 166 729 l 640 472 l 86 216 l 70 123 l 729 433 l 740 505 l 181 815 "},"s":{"x_min":11.046875,"x_max":486.390625,"ha":529,"o":"m 486 622 q 402 657 448 643 q 304 671 357 671 q 220 657 258 671 q 153 620 181 644 q 108 561 124 595 q 93 483 93 526 q 102 426 93 451 q 132 379 112 401 q 184 338 152 358 q 257 298 215 319 q 348 239 322 265 q 374 173 374 213 q 335 92 374 123 q 244 62 297 62 q 129 84 182 62 q 34 139 76 107 l 11 56 q 109 6 51 27 q 233 -14 166 -14 q 322 -1 280 -14 q 394 36 364 11 q 442 98 425 61 q 460 186 460 136 q 450 247 460 220 q 419 296 440 273 q 365 341 398 319 q 285 386 332 362 q 201 438 225 415 q 178 497 178 461 q 209 566 178 537 q 296 595 241 595 q 383 578 341 595 q 464 536 425 562 l 486 622 "},"B":{"x_min":67.5625,"x_max":683,"ha":730,"o":"m 683 744 q 613 901 683 845 q 420 958 544 958 l 220 958 l 67 0 l 302 0 q 445 20 379 0 q 556 77 510 40 q 629 170 603 115 q 656 295 656 225 q 612 426 656 376 q 500 504 569 476 q 631 592 579 532 q 683 744 683 652 m 589 734 q 570 655 589 690 q 520 594 552 619 q 445 555 488 569 q 352 542 402 542 l 246 542 l 299 879 l 416 879 q 543 841 498 879 q 589 734 589 804 m 562 290 q 494 134 562 190 q 312 79 427 79 l 171 79 l 234 464 l 339 464 q 505 417 448 464 q 562 290 562 370 "},"…":{"x_min":54.171875,"x_max":826.390625,"ha":963,"o":"m 804 0 l 826 136 l 718 136 l 695 0 l 804 0 m 483 0 l 505 136 l 397 136 l 375 0 l 483 0 m 162 0 l 184 136 l 76 136 l 54 0 l 162 0 "},"?":{"x_min":138.671875,"x_max":641,"ha":637,"o":"m 263 495 l 241 263 l 305 277 l 345 444 q 476 508 420 476 q 568 579 532 541 q 622 661 604 616 q 641 763 641 706 q 577 917 641 859 q 400 976 513 976 q 258 953 319 976 q 138 894 196 931 l 138 802 q 265 870 205 847 q 388 893 324 893 q 503 856 459 893 q 547 754 547 820 q 532 680 547 713 q 487 617 517 647 q 410 562 458 588 q 297 509 363 536 l 263 495 m 306 136 l 199 136 l 178 0 l 284 0 l 306 136 "},"H":{"x_min":68.0625,"x_max":893.0625,"ha":915,"o":"m 893 959 l 800 959 l 734 543 l 248 543 l 313 959 l 220 959 l 68 0 l 162 0 l 234 460 l 720 460 l 648 0 l 741 0 l 893 959 "},"c":{"x_min":57,"x_max":559.390625,"ha":575,"o":"m 559 615 q 482 654 524 638 q 381 671 440 671 q 252 638 312 671 q 149 549 193 605 q 81 418 105 493 q 57 262 57 344 q 75 145 57 197 q 126 58 93 94 q 206 4 159 23 q 308 -14 252 -14 q 399 0 356 -14 q 483 43 442 15 l 483 126 q 397 79 435 94 q 317 64 359 64 q 192 116 238 64 q 145 268 145 169 q 164 390 145 331 q 214 495 183 449 q 287 566 245 540 q 376 593 329 593 q 461 575 424 593 q 535 527 498 558 l 559 615 "},"&":{"x_min":44,"x_max":835.671875,"ha":890,"o":"m 675 229 q 753 369 717 291 q 819 538 788 447 l 735 558 q 684 415 712 480 q 625 297 657 349 l 421 573 q 362 667 381 626 q 344 751 344 708 q 384 855 344 815 q 496 896 425 896 q 590 880 542 896 q 687 833 638 864 l 710 921 q 611 962 663 947 q 500 977 560 977 q 400 959 446 977 q 321 910 354 942 q 270 837 288 879 q 252 743 252 794 q 270 641 252 689 q 330 538 289 594 q 118 407 192 487 q 44 216 44 327 q 62 118 44 162 q 115 44 81 75 q 196 -2 149 13 q 298 -18 242 -18 q 468 24 388 -18 q 619 151 548 67 l 738 -8 l 835 13 l 675 229 m 571 215 q 443 99 510 137 q 307 61 377 61 q 183 104 229 61 q 138 222 138 147 q 195 369 138 305 q 377 476 252 433 l 571 215 "},"I":{"x_min":77.78125,"x_max":323.609375,"ha":356,"o":"m 323 959 l 230 959 l 77 0 l 170 0 l 323 959 "},"•":{"x_min":143.0625,"x_max":466.671875,"ha":561,"o":"m 466 483 l 443 634 l 304 657 l 166 634 l 143 483 l 166 332 l 304 308 l 443 332 l 466 483 "},"G":{"x_min":85,"x_max":829.234375,"ha":885,"o":"m 813 502 l 482 502 l 482 419 l 708 419 l 659 117 q 573 80 623 95 q 461 66 523 66 q 350 87 401 66 q 261 150 298 109 q 202 253 223 192 q 182 393 182 314 q 210 583 182 493 q 288 741 238 673 q 407 849 338 809 q 557 890 476 890 q 693 864 629 890 q 805 795 757 839 l 829 892 q 716 952 782 930 q 566 975 650 975 q 374 926 462 975 q 221 796 286 877 q 121 609 157 715 q 85 388 85 504 q 112 221 85 297 q 187 94 139 146 q 305 12 236 41 q 455 -17 373 -17 q 607 5 539 -17 q 743 67 676 27 l 813 502 "},"(":{"x_min":103,"x_max":553,"ha":546,"o":"m 553 919 l 553 1009 q 345 861 431 939 q 206 698 260 783 q 127 520 152 612 q 103 329 103 427 q 118 196 103 258 q 161 79 133 134 q 229 -28 189 23 q 319 -133 269 -80 l 405 -113 q 312 0 351 -54 q 248 109 273 55 q 210 218 222 162 q 199 337 199 273 q 284 661 199 515 q 553 919 369 807 "},"`":{"x_min":277.78125,"x_max":500,"ha":633,"o":"m 500 764 l 397 976 l 277 950 l 438 764 l 500 764 "},"U":{"x_min":112,"x_max":905.390625,"ha":914,"o":"m 905 959 l 812 959 l 715 348 q 624 140 694 213 q 434 68 555 68 q 263 129 322 68 q 204 298 204 190 q 206 340 204 318 q 210 383 208 362 l 301 959 l 208 959 l 116 396 q 112 342 112 369 q 112 292 112 315 q 134 159 112 217 q 199 63 157 101 q 299 5 241 25 q 429 -15 357 -15 q 680 73 580 -15 q 806 332 779 162 l 905 959 "},"◊":{"x_min":165.453125,"x_max":1068,"ha":1112,"o":"m 1068 479 l 1068 958 l 973 958 l 820 565 l 668 958 l 573 958 l 573 479 l 631 479 l 631 846 l 793 478 l 845 478 l 1008 846 l 1008 479 l 1068 479 m 297 472 q 408 507 364 472 q 453 606 453 542 q 422 694 453 663 q 323 755 391 726 q 252 795 272 777 q 232 845 232 813 q 253 890 232 873 q 312 908 274 908 q 367 898 341 908 q 419 874 394 889 l 430 937 q 378 957 406 949 q 315 965 350 965 q 211 930 252 965 q 171 840 171 895 q 177 792 171 812 q 200 757 184 773 q 241 726 216 741 q 302 696 266 712 q 369 656 349 677 q 390 602 390 635 q 363 547 390 566 q 299 529 337 529 q 232 540 263 529 q 172 569 201 551 l 165 505 q 224 481 191 490 q 297 472 257 472 "},"F":{"x_min":67.671875,"x_max":670.4375,"ha":619,"o":"m 670 959 l 220 959 l 67 0 l 162 0 l 231 445 l 526 445 l 526 528 l 245 528 l 301 877 l 656 877 l 670 959 "},"r":{"x_min":52.609375,"x_max":455.453125,"ha":440,"o":"m 455 579 l 455 668 q 384 654 417 668 q 320 618 351 641 q 263 562 290 594 q 211 494 236 530 l 211 657 l 129 657 l 129 472 l 52 0 l 141 0 l 204 391 q 314 520 255 470 q 455 579 373 570 "},":":{"x_min":50,"x_max":259.71875,"ha":310,"o":"m 259 657 l 151 657 l 130 522 l 238 522 l 259 657 m 179 136 l 70 136 l 50 0 l 158 0 l 179 136 "},"x":{"x_min":-6.9375,"x_max":605.5625,"ha":611,"o":"m 605 657 l 505 657 l 315 408 l 197 668 l 109 650 l 261 340 l -6 0 l 93 0 l 297 269 l 429 -9 l 516 6 l 352 337 l 605 657 "},"*":{"x_min":123.609375,"x_max":551.390625,"ha":557,"o":"m 551 800 l 541 828 l 369 791 l 352 967 l 320 967 l 304 791 l 131 828 l 123 800 l 283 729 l 194 573 l 218 557 l 337 691 l 454 557 l 479 573 l 388 729 l 551 800 "},"†":{"x_min":110.15625,"x_max":672.21875,"ha":692,"o":"m 463 815 l 486 958 l 404 958 l 382 810 l 382 657 l 412 657 l 463 815 m 659 575 l 672 656 l 602 656 l 436 629 l 433 600 l 590 575 l 659 575 m 344 600 l 348 629 l 192 656 l 122 656 l 110 575 l 179 575 l 344 600 m 332 -1 l 400 430 l 400 574 l 369 574 l 323 430 l 256 -1 l 256 -161 l 282 -161 l 332 -1 "},"V":{"x_min":144.4375,"x_max":931.953125,"ha":881,"o":"m 931 958 l 831 958 l 405 128 l 237 967 l 144 946 l 347 -6 l 422 -6 l 931 958 "},"h":{"x_min":52.34375,"x_max":611,"ha":678,"o":"m 611 527 q 571 634 611 597 q 458 671 532 671 q 341 629 400 671 q 221 520 282 587 l 298 997 l 207 980 l 52 0 l 141 0 l 205 412 q 336 544 278 498 q 438 590 394 590 q 499 567 480 590 q 519 502 519 544 q 519 481 519 494 q 516 458 519 469 l 444 0 l 532 0 l 608 473 q 611 501 611 484 q 611 527 611 517 "},"0":{"x_min":89,"x_max":751,"ha":794,"o":"m 751 597 q 732 743 751 677 q 680 857 714 809 q 594 930 645 904 q 480 957 544 957 q 324 909 395 957 q 200 780 252 862 q 118 585 148 698 q 89 341 89 472 q 107 195 89 261 q 159 82 125 129 q 245 8 194 34 q 361 -18 295 -18 q 515 29 444 -18 q 639 158 587 76 q 721 352 691 240 q 751 597 751 465 m 658 593 q 635 379 658 476 q 572 211 612 281 q 480 100 533 140 q 366 61 427 61 q 231 133 280 61 q 182 345 182 206 q 204 559 182 462 q 265 727 226 657 q 358 838 305 798 q 473 878 412 878 q 608 805 559 878 q 658 593 658 732 "},".":{"x_min":41.671875,"x_max":172.21875,"ha":297,"o":"m 172 136 l 63 136 l 41 0 l 150 0 l 172 136 "},"”":{"x_min":122.21875,"x_max":556.9375,"ha":526,"o":"m 327 959 l 216 959 l 122 661 l 170 649 l 327 959 m 556 959 l 445 959 l 351 661 l 400 649 l 556 959 "},"@":{"x_min":71,"x_max":1079,"ha":1151,"o":"m 673 286 q 566 172 608 206 q 487 138 525 138 q 429 165 451 138 q 407 254 407 193 q 425 376 407 321 q 475 469 444 430 q 546 528 507 507 q 626 549 586 549 q 673 544 654 549 q 716 530 693 540 l 673 286 m 668 201 q 718 101 675 136 q 833 66 762 66 q 929 91 884 66 q 1006 164 973 117 q 1059 279 1040 211 q 1079 434 1079 348 q 1049 614 1079 534 q 963 750 1019 693 q 824 838 906 807 q 640 869 743 869 q 415 822 519 869 q 234 693 311 775 q 114 498 158 610 q 71 254 71 385 q 101 63 71 146 q 190 -77 132 -20 q 331 -164 248 -134 q 518 -194 414 -194 q 692 -175 612 -194 q 830 -127 772 -156 l 823 -87 q 686 -136 761 -119 q 523 -154 611 -154 q 359 -128 433 -154 q 232 -52 284 -103 q 150 75 179 -1 q 121 255 121 151 q 161 487 121 382 q 271 667 201 592 q 435 785 341 743 q 636 827 529 827 q 800 800 726 827 q 925 724 873 774 q 1004 600 976 674 q 1032 432 1032 526 q 1016 297 1032 355 q 975 198 1001 239 q 916 137 950 158 q 844 117 882 117 q 771 144 794 117 q 748 212 748 171 q 750 251 748 232 q 755 286 752 271 l 805 579 q 723 606 766 595 q 634 618 680 618 q 519 590 575 618 q 420 514 464 563 q 350 396 376 465 q 324 244 324 328 q 335 167 324 200 q 367 111 347 133 q 412 77 386 89 q 466 66 437 66 q 565 99 519 66 q 668 201 611 133 "},"f":{"x_min":39.109375,"x_max":463,"ha":389,"o":"m 463 909 l 463 988 q 403 993 442 993 q 273 955 321 993 q 211 831 225 917 l 183 657 l 84 657 l 73 582 l 171 582 l 39 -254 l 130 -239 l 259 582 l 403 582 l 403 657 l 271 657 l 297 819 q 401 915 312 915 q 436 913 421 915 q 463 909 451 912 "},";":{"x_min":-40.28125,"x_max":266.671875,"ha":310,"o":"m 266 657 l 158 657 l 137 522 l 245 522 l 266 657 m 190 136 l 79 136 l -40 -172 l 6 -184 l 190 136 "},"“":{"x_min":120.828125,"x_max":555.5625,"ha":526,"o":"m 120 657 l 231 657 l 326 954 l 277 966 l 120 657 m 350 657 l 461 657 l 555 954 l 506 966 l 350 657 "},"i":{"x_min":58.546875,"x_max":309,"ha":312,"o":"m 309 880 q 290 927 309 908 q 243 947 271 947 q 196 927 215 947 q 178 880 178 908 q 196 833 178 852 q 243 815 215 815 q 290 833 271 815 q 309 880 309 852 m 253 657 l 164 657 l 58 0 l 147 0 l 253 657 "},"6":{"x_min":81,"x_max":685,"ha":746,"o":"m 192 480 q 253 618 212 554 q 351 734 293 683 q 484 821 409 784 q 652 876 559 858 l 652 959 q 413 873 520 933 q 233 730 307 814 q 120 539 160 646 q 81 312 81 433 q 155 68 81 154 q 355 -18 229 -18 q 483 8 423 -18 q 588 80 543 34 q 659 187 633 126 q 685 318 685 248 q 620 501 685 438 q 447 564 555 564 q 313 540 376 564 q 192 480 250 516 m 174 393 q 300 461 236 437 q 427 486 364 486 q 549 441 506 486 q 593 311 593 397 q 574 212 593 258 q 525 132 556 166 q 452 79 494 98 q 361 60 409 60 q 220 128 271 60 q 169 318 169 196 q 174 393 169 355 "},"A":{"x_min":-2.78125,"x_max":797.21875,"ha":892,"o":"m 797 11 l 593 964 l 508 964 l -2 0 l 95 0 l 255 310 l 640 310 l 705 -9 l 797 11 m 623 392 l 297 392 l 531 843 l 623 392 "},"‘":{"x_min":120.828125,"x_max":326.390625,"ha":297,"o":"m 120 657 l 231 657 l 326 954 l 277 966 l 120 657 "},"n":{"x_min":52.609375,"x_max":611,"ha":678,"o":"m 611 527 q 571 634 611 597 q 458 671 532 671 q 337 626 397 671 q 211 510 276 581 l 211 657 l 129 657 l 129 472 l 52 0 l 141 0 l 205 412 q 336 544 278 498 q 438 590 394 590 q 499 567 480 590 q 519 502 519 544 q 519 481 519 494 q 516 458 519 469 l 444 0 l 532 0 l 608 473 q 611 501 611 484 q 611 527 611 517 "},"O":{"x_min":86,"x_max":916,"ha":958,"o":"m 916 561 q 891 726 916 650 q 821 858 867 803 q 707 945 775 914 q 552 977 639 977 q 369 931 455 977 q 221 808 284 886 q 122 624 158 729 q 86 397 86 518 q 110 232 86 308 q 180 100 134 155 q 293 13 226 44 q 448 -18 360 -18 q 630 27 545 -18 q 779 150 716 72 q 879 334 843 229 q 916 561 916 440 m 819 558 q 790 364 819 454 q 712 207 762 273 q 596 102 663 140 q 452 64 528 64 q 340 88 389 64 q 255 156 291 112 q 201 262 220 200 q 183 400 183 323 q 211 594 183 504 q 289 751 239 685 q 405 856 338 818 q 548 895 471 895 q 660 870 610 895 q 746 802 710 846 q 800 696 781 758 q 819 558 819 635 "},"3":{"x_min":10.609375,"x_max":655,"ha":681,"o":"m 655 744 q 586 899 655 841 q 402 957 518 957 q 271 936 331 957 q 153 878 212 915 l 153 792 q 395 876 276 876 q 516 839 470 876 q 562 733 562 802 q 541 648 562 685 q 482 586 520 611 q 392 549 445 561 q 278 537 340 537 l 238 537 l 238 456 l 268 456 q 444 408 382 456 q 506 269 506 360 q 488 182 506 220 q 441 115 471 143 q 370 74 411 88 q 279 61 328 61 q 159 81 220 61 q 38 143 99 102 l 10 59 q 136 2 68 23 q 274 -18 203 -18 q 403 2 343 -18 q 506 61 463 23 q 573 154 549 100 q 598 273 598 208 q 552 412 598 358 q 431 493 506 465 q 513 524 472 504 q 584 574 553 545 q 635 647 616 604 q 655 744 655 689 "},"]":{"x_min":-6.4375,"x_max":504.671875,"ha":538,"o":"m 504 959 l 163 959 l 163 888 l 407 888 l 254 -75 l 4 -75 l -6 -146 l 331 -146 l 504 959 "},"m":{"x_min":52.609375,"x_max":989,"ha":1054,"o":"m 590 412 q 720 544 662 498 q 819 590 777 590 q 880 567 862 590 q 899 502 899 544 q 897 482 899 494 q 893 458 896 470 l 821 0 l 910 0 l 984 473 q 989 527 989 500 q 950 634 989 597 q 840 671 912 671 q 724 630 783 671 q 604 521 666 590 l 604 527 q 567 633 604 596 q 458 671 531 671 q 338 626 399 671 q 211 510 276 581 l 211 657 l 129 657 l 129 472 l 52 0 l 141 0 l 205 412 q 336 544 277 498 q 437 590 394 590 q 497 567 480 590 q 514 502 514 544 q 512 482 514 494 q 508 458 511 470 l 436 0 l 525 0 l 590 412 "},"9":{"x_min":106,"x_max":709,"ha":747,"o":"m 593 443 q 432 198 549 298 q 135 62 316 98 l 135 -20 q 373 64 267 5 q 554 207 479 123 q 668 397 628 291 q 709 626 709 504 q 635 870 709 784 q 433 957 561 957 q 304 929 364 957 q 201 855 244 902 q 131 745 157 808 q 106 612 106 683 q 169 427 106 490 q 343 364 233 364 q 475 385 413 364 q 593 443 536 407 m 614 533 q 489 466 552 490 q 363 442 425 442 q 240 487 282 442 q 198 620 198 533 q 215 720 198 673 q 263 803 232 768 q 336 858 294 838 q 427 879 378 879 q 569 811 519 879 q 619 620 619 743 q 619 575 619 597 q 614 533 619 554 "},"l":{"x_min":58.328125,"x_max":305.5625,"ha":311,"o":"m 305 997 l 213 980 l 58 0 l 147 0 l 305 997 "},"8":{"x_min":51,"x_max":706.890625,"ha":743,"o":"m 431 522 q 288 615 328 570 q 248 714 248 659 q 260 776 248 746 q 298 830 273 807 q 359 867 323 853 q 441 881 395 881 q 570 840 523 881 q 618 732 618 800 q 570 613 618 665 q 431 522 523 561 m 364 466 q 468 412 427 437 q 532 361 509 387 q 566 308 556 336 q 576 248 576 281 q 559 172 576 206 q 513 112 542 137 q 443 72 484 87 q 355 58 402 58 q 269 71 309 58 q 201 107 229 84 q 156 162 172 130 q 141 231 141 194 q 195 363 141 304 q 364 466 249 422 m 285 507 q 110 388 170 456 q 51 224 51 320 q 70 130 51 174 q 128 53 89 85 q 221 1 166 20 q 349 -17 277 -17 q 478 3 420 -17 q 579 60 537 24 q 645 147 621 96 q 669 255 669 197 q 628 385 669 330 q 507 484 587 440 q 651 585 595 525 q 706 737 706 645 q 688 825 706 784 q 637 894 670 865 q 555 940 604 923 q 444 957 506 957 q 324 936 377 957 q 233 882 270 916 q 177 802 196 848 q 158 707 158 757 q 190 591 158 640 q 285 507 223 543 "},"p":{"x_min":12.328125,"x_max":625,"ha":678,"o":"m 12 -253 l 102 -237 l 142 12 q 197 -1 167 4 q 263 -8 227 -8 q 403 23 337 -8 q 518 112 469 55 q 596 250 568 169 q 625 429 625 330 q 572 609 625 547 q 436 671 520 671 q 320 634 373 671 q 211 537 267 598 l 211 657 l 129 657 l 129 472 l 12 -253 m 155 91 l 212 451 q 325 557 277 522 q 419 593 373 593 q 503 547 474 593 q 533 419 533 501 q 511 271 533 336 q 454 159 489 205 q 371 90 419 114 q 273 67 324 67 q 212 73 240 67 q 155 91 184 79 "},"4":{"x_min":38.890625,"x_max":743.0625,"ha":789,"o":"m 743 299 l 586 299 l 690 942 l 580 942 l 48 286 l 38 224 l 493 224 l 455 0 l 538 0 l 575 224 l 730 224 l 743 299 m 502 299 l 151 299 l 590 842 l 502 299 "},"‡":{"x_min":38.78125,"x_max":684.828125,"ha":718,"o":"m 476 815 l 498 958 l 418 958 l 396 812 l 396 657 l 426 657 l 476 815 m 672 575 l 684 656 l 616 656 l 450 629 l 445 600 l 602 575 l 672 575 m 357 600 l 362 629 l 204 656 l 134 656 l 122 575 l 191 575 l 357 600 m 387 272 l 414 434 l 414 574 l 382 574 l 336 430 l 311 268 l 311 129 l 343 129 l 387 272 m 589 47 l 601 128 l 533 128 l 366 101 l 361 72 l 519 47 l 589 47 m 273 72 l 279 101 l 120 128 l 51 128 l 38 47 l 108 47 l 273 72 m 306 -257 l 328 -109 l 328 44 l 298 44 l 247 -114 l 224 -257 l 306 -257 "},"R":{"x_min":68.125,"x_max":701,"ha":750,"o":"m 701 724 q 621 900 701 842 q 405 959 542 959 l 220 959 l 68 0 l 162 0 l 229 424 l 337 424 l 579 -9 l 674 11 l 440 435 q 631 533 561 457 q 701 724 701 608 m 607 716 q 541 563 607 621 q 352 505 475 505 l 243 505 l 301 877 l 404 877 q 607 716 607 877 "},"o":{"x_min":57,"x_max":607,"ha":663,"o":"m 607 391 q 543 598 607 525 q 370 671 480 671 q 243 637 301 671 q 144 548 186 604 q 79 418 102 491 q 57 265 57 345 q 119 58 57 131 q 291 -14 182 -14 q 418 19 361 -14 q 518 108 476 52 q 583 238 559 165 q 607 391 607 311 m 517 388 q 501 268 517 327 q 456 163 485 209 q 387 88 428 116 q 298 59 347 59 q 239 71 266 59 q 190 108 211 83 q 157 172 169 133 q 145 269 145 212 q 161 388 145 329 q 207 493 177 447 q 276 568 236 540 q 365 597 316 597 q 423 585 396 597 q 472 548 451 573 q 505 484 493 523 q 517 388 517 444 "},"5":{"x_min":22.546875,"x_max":671,"ha":686,"o":"m 671 861 l 671 939 l 233 939 l 136 508 q 428 432 339 489 q 517 269 517 375 q 500 184 517 222 q 454 119 483 146 q 384 77 425 92 q 296 63 343 63 q 170 81 229 63 q 50 135 111 100 l 22 53 q 146 1 80 21 q 290 -18 211 -18 q 413 2 354 -18 q 514 61 471 22 q 583 154 557 100 q 609 279 609 209 q 515 480 609 407 q 232 579 422 554 l 297 861 l 671 861 "}}}
